<?xml version="1.0" encoding="utf-8"?>
<!-- Generator: Adobe Illustrator 21.1.0, SVG Export Plug-In . SVG Version: 6.00 Build 0)  -->
<svg version="1.1" id="Layer_1" xmlns="http://www.w3.org/2000/svg" xmlns:xlink="http://www.w3.org/1999/xlink" x="0px" y="0px"
	 viewBox="0 0 100 125" style="enable-background:new 0 0 100 125;" xml:space="preserve">
<title>Upload s9.4</title>
<desc>Created with Sketch.</desc>
<g>
	<g>
		<path d="M52,17.9l10,10.2c2.8,2.8-1.4,7.1-4.2,4.2l-3.4-3.5c-0.8-0.8-1.4-0.5-1.4,0.6v33.7c0,1.7-1.3,3-3,3c-1.6,0-3-1.3-3-3V29.5
			c0-1.1-0.6-1.4-1.4-0.6l-3.4,3.5c-2.8,2.8-7.1-1.4-4.2-4.2l9.9-10.2C49,16.7,50.9,16.7,52,17.9z M30.6,35.6c1.4-1.4,3.6-1.4,4.9,0
			c1.4,1.4,1.4,3.6,0,4.9c-8,8-8,21,0,29s21,8,29,0s8-21,0-29c-1.4-1.4-1.4-3.6,0-4.9c1.4-1.4,3.6-1.4,4.9,0
			c10.7,10.7,10.7,28.2,0,38.9s-28.2,10.7-38.9,0S19.8,46.3,30.6,35.6z"/>
	</g>
</g>
</svg>
