<svg xmlns="http://www.w3.org/2000/svg" xmlns:xlink="http://www.w3.org/1999/xlink" viewBox="0 0 100 125" version="1.1" x="0px" y="0px"><title>Upload s9.4</title><desc>Created with Sketch.</desc><g stroke="none" stroke-width="1" fill="none" fill-rule="evenodd"><g fill="#000000"><path d="M52.0440897,17.8847054 L62.0700334,28.1205764 C64.8900113,30.9486345 60.6600445,35.1917216 57.8390694,32.3636635 L54.4069511,28.90862 C53.6256059,28.1220556 52.9919266,28.3805022 52.9919266,29.4862167 L52.9919266,63.2311436 C52.9919266,64.9059373 51.6525909,66.2400017 50.0004366,66.2400017 C48.3516441,66.2400017 47.0089466,64.89289 47.0089466,63.2311436 L47.0089466,29.4862167 C47.0089466,28.3850916 46.3752882,28.1219034 45.5936309,28.90862 L42.1608066,32.3636635 C39.3408287,35.1917216 35.1098647,30.9486345 37.9298426,28.1205764 L47.8530305,17.8988363 C49.0132064,16.703755 50.8854039,16.7017585 52.0440897,17.8847054 Z M30.5545635,35.5545635 C31.9213985,34.1877285 34.137476,34.1877285 35.504311,35.5545635 C36.871146,36.9213985 36.871146,39.137476 35.504311,40.504311 C27.498563,48.510059 27.498563,61.489941 35.504311,69.495689 C43.510059,77.501437 56.489941,77.501437 64.495689,69.495689 C72.501437,61.489941 72.501437,48.510059 64.495689,40.504311 C63.128854,39.137476 63.128854,36.9213985 64.495689,35.5545635 C65.862524,34.1877285 68.0786015,34.1877285 69.4454365,35.5545635 C80.1848545,46.2939815 80.1848545,63.7060185 69.4454365,74.4454365 C58.7060185,85.1848545 41.2939815,85.1848545 30.5545635,74.4454365 C19.8151455,63.7060185 19.8151455,46.2939815 30.5545635,35.5545635 Z"/></g></g><text x="0" y="115" fill="#000000" font-size="5px" font-weight="bold" font-family="'Helvetica Neue', Helvetica, Arial-Unicode, Arial, Sans-serif">Created by Landan Lloyd</text><text x="0" y="120" fill="#000000" font-size="5px" font-weight="bold" font-family="'Helvetica Neue', Helvetica, Arial-Unicode, Arial, Sans-serif">from the Noun Project</text></svg>